<svg width="30" height="36" viewBox="0 0 30 36" fill="none" xmlns="http://www.w3.org/2000/svg">
<g clip-path="url(#clip0_40_2)">
<path d="M15 36V16.8M15 18V25.2M15 18C15 15.4539 14.1571 13.0121 12.6569 11.2118C11.1566 9.41144 9.12173 8.40001 7 8.40001H1V15.6C1 18.1461 1.84285 20.5879 3.34315 22.3882C4.84344 24.1886 6.87827 25.2 9 25.2H15M15 18H21C23.1217 18 25.1566 16.9886 26.6569 15.1882C28.1571 13.3879 29 10.9461 29 8.40001V1.20001H23C20.8783 1.20001 18.8434 2.21144 17.3431 4.01179C15.8429 5.81214 15 8.25393 15 10.8V18ZM15 18L23 8.40001M15 25.2L7 15.6" stroke="black"/>
</g>
<defs>
<clipPath id="clip0_40_2">
<rect width="30" height="36" fill="white"/>
</clipPath>
</defs>
</svg>
