<svg width="48" height="48" viewBox="0 0 48 48" fill="none" xmlns="http://www.w3.org/2000/svg">
<path fill-rule="evenodd" clip-rule="evenodd" d="M21.9999 29H26.9999C26.9999 29.393 27.0549 29.776 27.1579 30.143C27.0486 30.1876 26.9491 30.2532 26.8652 30.3363C26.7813 30.4193 26.7146 30.5181 26.6689 30.627C26.6232 30.7358 26.5994 30.8526 26.5989 30.9707C26.5984 31.0887 26.6212 31.2057 26.6659 31.315L26.7049 31.409C26.8053 31.6544 26.9991 31.8499 27.2437 31.9525C27.4882 32.0551 27.7635 32.0563 28.0089 31.956L28.1209 31.91C28.4669 32.312 28.8819 32.67 29.3529 32.97C29.0919 33.457 29.2709 34.07 29.7569 34.332C29.9906 34.4574 30.2645 34.4849 30.5184 34.4084C30.7724 34.3319 30.9855 34.1576 31.1109 33.924L31.1949 33.77C31.8549 33.9423 32.5362 34.0188 33.2179 33.997L33.2439 34.132C33.2943 34.3924 33.4461 34.6222 33.6659 34.7707C33.8857 34.9192 34.1555 34.9744 34.4159 34.924C34.6764 34.8736 34.9061 34.7218 35.0547 34.502C35.2032 34.2822 35.2583 34.0124 35.2079 33.752L35.1889 33.657C36.0599 33.3795 36.8577 32.9107 37.5239 32.285L37.8339 36.014C37.5868 36.0558 37.3643 36.1889 37.2107 36.3869C37.057 36.585 36.9833 36.8335 37.0042 37.0833C37.025 37.3331 37.139 37.5659 37.3234 37.7357C37.5078 37.9055 37.7493 37.9998 37.9999 38H40.9999V20C41.0047 18.6424 40.5579 17.3218 39.7299 16.246C40.3549 16.414 40.7919 16.659 41.0999 16.956C41.6569 17.491 41.9999 18.392 41.9999 20L42.3869 25.42C42.1519 25.785 41.9999 26.357 41.9999 27C41.9999 28.105 42.4479 29 42.9999 29C43.5519 29 43.9999 28.105 43.9999 27C43.9999 26.357 43.8479 25.785 43.6129 25.42L43.9999 20C43.9999 18.166 43.6169 16.6 42.4859 15.513C41.3689 14.44 39.7299 14.036 37.7129 14.002C37.6369 14 35.5559 14 35.4999 14V14.007C35.4073 14.0024 35.3146 14.0001 35.2219 14H20.4999C18.5659 14 17.1049 13.712 15.8799 13.332L15.7269 13.126C16.3969 12.956 17.0719 12.684 17.5569 12.326C18.8269 11.392 19.5639 9.51299 17.9389 9.71899C17.4659 9.77899 17.1249 9.79099 16.8459 9.80099C16.1679 9.82399 15.8659 9.83499 14.9659 10.498C14.6224 10.749 14.3039 11.0327 14.0149 11.345C12.6159 10.305 10.7539 9.83999 7.49994 9.99999C7.36733 9.99999 7.24015 10.0527 7.14639 10.1464C7.05262 10.2402 6.99994 10.3674 6.99994 10.5C6.99994 10.6326 7.05262 10.7598 7.14639 10.8535C7.24015 10.9473 7.36733 11 7.49994 11H9.23694C9.52294 11.184 9.76694 11.356 9.98394 11.52L6.39994 16H6.18794C5.87609 15.9999 5.56855 16.0728 5.28987 16.2127C5.0112 16.3527 4.76911 16.5559 4.58295 16.8061C4.39679 17.0563 4.27172 17.3465 4.21771 17.6537C4.16371 17.9608 4.18228 18.2763 4.27194 18.575L4.57194 19.575C4.6956 19.987 4.9488 20.3481 5.29394 20.6048C5.63909 20.8615 6.0578 21.0001 6.48794 21H9.84994C10.2726 21.0002 10.6843 21.1343 11.0259 21.383L13.2159 22.975C13.2819 23.023 13.3499 23.067 13.4189 23.105C14.9859 27.145 16.6389 30.291 18.4889 31.874L18.8339 36.014C18.5868 36.0558 18.3643 36.1889 18.2107 36.3869C18.057 36.585 17.9833 36.8335 18.0042 37.0833C18.025 37.3331 18.139 37.5659 18.3234 37.7357C18.5078 37.9055 18.7493 37.9998 18.9999 38H21.9999V29ZM31.8099 29H28.9999C28.9999 30.33 30.4339 32 32.9999 32C33.9509 32 34.7469 31.77 35.3719 31.414C33.9419 30.844 32.8339 29.996 31.8109 29" fill="black"/>
</svg>
